<svg xmlns="http://www.w3.org/2000/svg" width="1200" height="630" viewBox="0 0 1200 630" role="img" aria-label="LLM as an Operator - TO2D">
  <defs>
    <pattern id="dotgrid" width="24" height="24" patternUnits="userSpaceOnUse">
      <circle cx="12" cy="12" r="0.7" fill="#E8E8E6" />
    </pattern>
  </defs>

  <rect width="1200" height="630" fill="#F7F7F5" />
  <rect width="1200" height="630" fill="url(#dotgrid)" />

  <text x="600" y="110" text-anchor="middle" fill="#1A1A1A" font-family="Georgia, Times New Roman, serif" font-size="52" font-weight="300" letter-spacing="-0.5">Beyond Prompt Engineering</text>

  <rect x="260" y="240" width="180" height="80" rx="5" fill="#FFFFFF" stroke="#DADADA" stroke-width="1.4" />
  <text x="350" y="278" text-anchor="middle" fill="#2A2A2A" font-family="monospace" font-size="24">A</text>
  <text x="350" y="304" text-anchor="middle" fill="#8C8C8C" font-family="monospace" font-size="13">environment</text>

  <line x1="440" y1="280" x2="520" y2="280" stroke="#B5B5B5" stroke-width="1.6" />
  <polygon points="526,280 516,274 516,286" fill="#B5B5B5" />

  <circle cx="600" cy="280" r="48" fill="#FFFFFF" stroke="#DADADA" stroke-width="1.4" />
  <circle cx="600" cy="280" r="36" fill="none" stroke="#E8E8E6" stroke-width="0.8" />
  <text x="600" y="292" text-anchor="middle" fill="#2A2A2A" font-family="monospace" font-size="36">&#x2299;</text>

  <line x1="648" y1="280" x2="752" y2="280" stroke="#B5B5B5" stroke-width="1.6" />
  <polygon points="758,280 748,274 748,286" fill="#B5B5B5" />

  <rect x="760" y="240" width="180" height="80" rx="5" fill="#FFFFFF" stroke="#DADADA" stroke-width="1.4" />
  <text x="850" y="278" text-anchor="middle" fill="#2A2A2A" font-family="monospace" font-size="24">B</text>
  <text x="850" y="304" text-anchor="middle" fill="#8C8C8C" font-family="monospace" font-size="13">system</text>

  <text x="600" y="410" text-anchor="middle" fill="#5A5A5A" font-family="Georgia, Times New Roman, serif" font-size="22" font-weight="300">Language models as system operators.</text>

  <line x1="200" y1="564" x2="1000" y2="564" stroke="#E8E8E6" stroke-width="1" />
  <text x="86" y="598" fill="#1A1A1A" font-family="Georgia, Times New Roman, serif" font-size="22">TO2D</text>
  <text x="600" y="598" text-anchor="middle" fill="#8C8C8C" font-family="monospace" font-size="13" letter-spacing="1.5">LLM AS AN OPERATOR</text>
</svg>
